<?xml version="1.0" encoding="UTF-8" standalone="no"?>
<!DOCTYPE svg PUBLIC "-//W3C//DTD SVG 1.1//EN"
 "http://www.w3.org/Graphics/SVG/1.1/DTD/svg11.dtd">
<!-- Generated by graphviz version 15.0.0 (20260523.1842)
 -->
<!-- Title: HalfEdgeSplit Pages: 1 -->
<svg width="287pt" height="440pt"
 viewBox="0.00 0.00 287.00 440.00" xmlns="http://www.w3.org/2000/svg" xmlns:xlink="http://www.w3.org/1999/xlink">
<g id="graph0" class="graph" transform="scale(1 1) rotate(0) translate(4 436)">
<title>HalfEdgeSplit</title>
<g id="clust1" class="cluster">
<title>cluster_geometric</title>
<path fill="#f5f5f5" stroke="#757575" stroke-dasharray="5,2" d="M42.12,-8C42.12,-8 251,-8 251,-8 257,-8 263,-14 263,-20 263,-20 263,-77 263,-77 263,-83 257,-89 251,-89 251,-89 42.12,-89 42.12,-89 36.12,-89 30.12,-83 30.12,-77 30.12,-77 30.12,-20 30.12,-20 30.12,-14 36.12,-8 42.12,-8"/>
<text xml:space="preserve" text-anchor="middle" x="146.56" y="-72.65" font-family="Sans" font-size="13.00">几何上的&quot;边&quot;(被两个面共享)</text>
</g>
<g id="clust2" class="cluster">
<title>cluster_halfedges</title>
<path fill="#fff8e1" stroke="#ff8f00" stroke-dasharray="5,2" d="M34.12,-141C34.12,-141 259,-141 259,-141 265,-141 271,-147 271,-153 271,-153 271,-334 271,-334 271,-340 265,-346 259,-346 259,-346 34.12,-346 34.12,-346 28.12,-346 22.12,-340 22.12,-334 22.12,-334 22.12,-153 22.12,-153 22.12,-147 28.12,-141 34.12,-141"/>
<text xml:space="preserve" text-anchor="middle" x="146.56" y="-329.65" font-family="Sans" font-size="13.00">两条半边 (Half&#45;Edge)</text>
</g>
<g id="clust3" class="cluster">
<title>cluster_he0</title>
<path fill="#e8f5e9" stroke="#ff8f00" stroke-dasharray="5,2" d="M42.12,-149C42.12,-149 251,-149 251,-149 257,-149 263,-155 263,-161 263,-161 263,-215 263,-215 263,-221 257,-227 251,-227 251,-227 42.12,-227 42.12,-227 36.12,-227 30.12,-221 30.12,-215 30.12,-215 30.12,-161 30.12,-161 30.12,-155 36.12,-149 42.12,-149"/>
<text xml:space="preserve" text-anchor="middle" x="146.56" y="-212.55" font-family="Sans" font-size="11.00">属于面 F0 (绿)</text>
</g>
<g id="clust4" class="cluster">
<title>cluster_he1</title>
<path fill="#ffebee" stroke="#ff8f00" stroke-dasharray="5,2" d="M42.12,-235C42.12,-235 251,-235 251,-235 257,-235 263,-241 263,-247 263,-247 263,-301 263,-301 263,-307 257,-313 251,-313 251,-313 42.12,-313 42.12,-313 36.12,-313 30.12,-307 30.12,-301 30.12,-301 30.12,-247 30.12,-247 30.12,-241 36.12,-235 42.12,-235"/>
<text xml:space="preserve" text-anchor="middle" x="146.56" y="-298.55" font-family="Sans" font-size="11.00">属于面 F1 (红)</text>
</g>
<!-- V0_g -->
<g id="node1" class="node">
<title>V0_g</title>
<ellipse fill="#bbdefb" stroke="black" cx="58.25" cy="-36" rx="20.13" ry="20.13"/>
<text xml:space="preserve" text-anchor="middle" x="58.25" y="-32.48" font-family="Sans" font-size="12.00">V0</text>
</g>
<!-- V1_g -->
<g id="node2" class="node">
<title>V1_g</title>
<ellipse fill="#bbdefb" stroke="black" cx="234.88" cy="-36" rx="20.13" ry="20.13"/>
<text xml:space="preserve" text-anchor="middle" x="234.88" y="-32.48" font-family="Sans" font-size="12.00">V1</text>
</g>
<!-- V0_g&#45;&gt;V1_g -->
<g id="edge1" class="edge">
<title>V0_g&#45;&gt;V1_g</title>
<path fill="none" stroke="#424242" stroke-width="3" d="M78.61,-36C112.17,-36 180.81,-36 214.43,-36"/>
<text xml:space="preserve" text-anchor="middle" x="165.62" y="-37.55" font-family="Sans" font-size="11.00">一条几何边</text>
</g>
<!-- arrow -->
<g id="node3" class="node">
<title>arrow</title>
<text xml:space="preserve" text-anchor="middle" x="58.25" y="-109.2" font-family="Sans" font-size="14.00" fill="#ff6f00">拆成</text>
</g>
<!-- V0_he -->
<g id="node4" class="node">
<title>V0_he</title>
<ellipse fill="#bbdefb" stroke="black" cx="58.25" cy="-177" rx="20.13" ry="20.13"/>
<text xml:space="preserve" text-anchor="middle" x="58.25" y="-173.47" font-family="Sans" font-size="12.00">V0</text>
</g>
<!-- V1_he -->
<g id="node5" class="node">
<title>V1_he</title>
<ellipse fill="#bbdefb" stroke="black" cx="234.88" cy="-177" rx="20.13" ry="20.13"/>
<text xml:space="preserve" text-anchor="middle" x="234.88" y="-173.47" font-family="Sans" font-size="12.00">V1</text>
</g>
<!-- V0_he&#45;&gt;V1_he -->
<g id="edge2" class="edge">
<title>V0_he&#45;&gt;V1_he</title>
<path fill="none" stroke="#2e7d32" stroke-width="2.5" d="M78.61,-177C108.11,-177 164.7,-177 200.8,-177"/>
<polygon fill="#2e7d32" stroke="#2e7d32" stroke-width="2.5" points="200.65,-180.5 210.65,-177 200.65,-173.5 200.65,-180.5"/>
<text xml:space="preserve" text-anchor="middle" x="165.62" y="-180.8" font-family="Sans" font-size="11.00">he0: V0→V1</text>
</g>
<!-- V0_hp -->
<g id="node6" class="node">
<title>V0_hp</title>
<ellipse fill="#bbdefb" stroke="black" cx="234.88" cy="-263" rx="20.13" ry="20.13"/>
<text xml:space="preserve" text-anchor="middle" x="234.88" y="-259.48" font-family="Sans" font-size="12.00">V0</text>
</g>
<!-- V1_hp -->
<g id="node7" class="node">
<title>V1_hp</title>
<ellipse fill="#bbdefb" stroke="black" cx="58.25" cy="-263" rx="20.13" ry="20.13"/>
<text xml:space="preserve" text-anchor="middle" x="58.25" y="-259.48" font-family="Sans" font-size="12.00">V1</text>
</g>
<!-- V1_hp&#45;&gt;V0_hp -->
<g id="edge3" class="edge">
<title>V1_hp&#45;&gt;V0_hp</title>
<path fill="none" stroke="#c62828" stroke-width="2.5" d="M78.61,-263C108.11,-263 164.7,-263 200.8,-263"/>
<polygon fill="#c62828" stroke="#c62828" stroke-width="2.5" points="200.65,-266.5 210.65,-263 200.65,-259.5 200.65,-266.5"/>
<text xml:space="preserve" text-anchor="middle" x="165.62" y="-266.8" font-family="Sans" font-size="11.00">he1: V1→V0</text>
</g>
<!-- note_pair -->
<g id="node8" class="node">
<title>note_pair</title>
<polygon fill="#e1bee7" stroke="black" points="110.5,-432 0,-432 0,-354 116.5,-354 116.5,-426 110.5,-432"/>
<polyline fill="none" stroke="black" points="110.5,-432 110.5,-426"/>
<polyline fill="none" stroke="black" points="116.5,-426 110.5,-426"/>
<text xml:space="preserve" text-anchor="middle" x="58.25" y="-417.55" font-family="Sans" font-size="11.00">he0.Pair = he1</text>
<text xml:space="preserve" text-anchor="middle" x="58.25" y="-403.3" font-family="Sans" font-size="11.00">he1.Pair = he0</text>
<text xml:space="preserve" text-anchor="middle" x="58.25" y="-376.05" font-family="Sans" font-size="11.00">Pair 属性让两条半边</text>
<text xml:space="preserve" text-anchor="middle" x="58.25" y="-361.8" font-family="Sans" font-size="11.00">&quot;知道彼此的存在&quot;</text>
</g>
</g>
</svg>
