<?xml version="1.0" encoding="UTF-8" standalone="no"?>
<!DOCTYPE svg PUBLIC "-//W3C//DTD SVG 1.1//EN"
 "http://www.w3.org/Graphics/SVG/1.1/DTD/svg11.dtd">
<!-- Generated by graphviz version 15.0.0 (20260523.1842)
 -->
<!-- Title: Motivation Pages: 1 -->
<svg width="260pt" height="218pt"
 viewBox="0.00 0.00 260.00 218.00" xmlns="http://www.w3.org/2000/svg" xmlns:xlink="http://www.w3.org/1999/xlink">
<g id="graph0" class="graph" transform="scale(1 1) rotate(0) translate(4 213.72)">
<title>Motivation</title>
<g id="clust1" class="cluster">
<title>cluster_F0</title>
<polygon fill="#e8f5e9" stroke="black" stroke-dasharray="5,2" points="0,-70.47 0,-209.72 117.06,-209.72 117.06,-70.47 0,-70.47"/>
</g>
<g id="clust2" class="cluster">
<title>cluster_F1</title>
<polygon fill="#ffebee" stroke="black" stroke-dasharray="5,2" points="41.01,-70.47 41.01,-178.45 154.72,-178.45 154.72,-70.47 41.01,-70.47"/>
</g>
<!-- V0 -->
<g id="node1" class="node">
<title>V0</title>
<ellipse fill="#bbdefb" stroke="black" cx="96.94" cy="-90.6" rx="20.13" ry="20.13"/>
<text xml:space="preserve" text-anchor="middle" x="96.94" y="-87.07" font-family="Sans" font-size="12.00">V0</text>
</g>
<!-- V1 -->
<g id="node2" class="node">
<title>V1</title>
<ellipse fill="#bbdefb" stroke="black" cx="20.13" cy="-92.06" rx="20.13" ry="20.13"/>
<text xml:space="preserve" text-anchor="middle" x="20.13" y="-88.53" font-family="Sans" font-size="12.00">V1</text>
</g>
<!-- V0&#45;&gt;V1 -->
<g id="edge1" class="edge">
<title>V0&#45;&gt;V1</title>
<path fill="none" stroke="#2e7d32" stroke-width="2.5" d="M76.35,-90.99C69.5,-91.12 61.67,-91.27 54.07,-91.41"/>
<polygon fill="#2e7d32" stroke="#2e7d32" stroke-width="2.5" points="54.22,-87.91 44.28,-91.6 54.35,-94.91 54.22,-87.91"/>
<text xml:space="preserve" text-anchor="middle" x="57.9" y="-81.7" font-family="Sans" font-size="10.00">共享边</text>
</g>
<!-- V2 -->
<g id="node3" class="node">
<title>V2</title>
<ellipse fill="#bbdefb" stroke="black" cx="61.14" cy="-151.79" rx="20.13" ry="20.13"/>
<text xml:space="preserve" text-anchor="middle" x="61.14" y="-148.27" font-family="Sans" font-size="12.00">V2</text>
</g>
<!-- V0&#45;&gt;V2 -->
<g id="edge4" class="edge">
<title>V0&#45;&gt;V2</title>
<path fill="none" stroke="#c62828" stroke-width="2.5" d="M81.9,-104.24C78.54,-108.98 75.07,-114.49 71.91,-120.05"/>
<polygon fill="#c62828" stroke="#c62828" stroke-width="2.5" points="68.94,-118.18 67.41,-128.66 75.14,-121.42 68.94,-118.18"/>
</g>
<!-- V1&#45;&gt;V2 -->
<g id="edge2" class="edge">
<title>V1&#45;&gt;V2</title>
<path fill="none" stroke="#2e7d32" stroke-width="1.5" d="M31.77,-109.02C35.18,-113.98 38.98,-119.52 42.7,-124.94"/>
<polygon fill="#2e7d32" stroke="#2e7d32" stroke-width="1.5" points="39.78,-126.86 48.32,-133.13 45.55,-122.9 39.78,-126.86"/>
</g>
<!-- V2&#45;&gt;V0 -->
<g id="edge3" class="edge">
<title>V2&#45;&gt;V0</title>
<path fill="none" stroke="#2e7d32" stroke-width="1.5" d="M76.18,-138.15C79.81,-133.03 83.57,-127 86.93,-120.99"/>
<polygon fill="#2e7d32" stroke="#2e7d32" stroke-width="1.5" points="89.89,-122.88 91.38,-112.39 83.68,-119.66 89.89,-122.88"/>
<text xml:space="preserve" text-anchor="middle" x="66.93" y="-120.07" font-family="Sans" font-size="10.00">共享边</text>
</g>
<!-- V3 -->
<g id="node4" class="node">
<title>V3</title>
<ellipse fill="#bbdefb" stroke="black" cx="133.28" cy="-158.32" rx="20.13" ry="20.13"/>
<text xml:space="preserve" text-anchor="middle" x="133.28" y="-154.79" font-family="Sans" font-size="12.00">V3</text>
</g>
<!-- V2&#45;&gt;V3 -->
<g id="edge5" class="edge">
<title>V2&#45;&gt;V3</title>
<path fill="none" stroke="#c62828" stroke-width="1.5" d="M81.62,-153.65C87.56,-154.18 94.2,-154.78 100.69,-155.37"/>
<polygon fill="#c62828" stroke="#c62828" stroke-width="1.5" points="100.22,-158.84 110.49,-156.26 100.85,-151.87 100.22,-158.84"/>
</g>
<!-- V3&#45;&gt;V0 -->
<g id="edge6" class="edge">
<title>V3&#45;&gt;V0</title>
<path fill="none" stroke="#c62828" stroke-width="1.5" d="M123.54,-140.17C120.07,-133.69 116.06,-126.23 112.23,-119.09"/>
<polygon fill="#c62828" stroke="#c62828" stroke-width="1.5" points="115.34,-117.48 107.53,-110.33 109.17,-120.79 115.34,-117.48"/>
</g>
<!-- F0 -->
<g id="node5" class="node">
<title>F0</title>
<text xml:space="preserve" text-anchor="middle" x="225" y="-189.1" font-family="Sans" font-size="12.00" fill="#1b5e20">面 F0</text>
<text xml:space="preserve" text-anchor="middle" x="225" y="-173.35" font-family="Sans" font-size="12.00" fill="#1b5e20">(ABC)</text>
</g>
<!-- F1 -->
<g id="node6" class="node">
<title>F1</title>
<text xml:space="preserve" text-anchor="middle" x="225" y="-112.1" font-family="Sans" font-size="12.00" fill="#b71c1c">面 F1</text>
<text xml:space="preserve" text-anchor="middle" x="225" y="-96.35" font-family="Sans" font-size="12.00" fill="#b71c1c">(ACD)</text>
</g>
<!-- F0_node -->
<g id="node7" class="node">
<title>F0_node</title>
<ellipse fill="black" stroke="black" cx="88.36" cy="-209.36" rx="0.36" ry="0.36"/>
</g>
<!-- F1_node -->
<g id="node8" class="node">
<title>F1_node</title>
<ellipse fill="black" stroke="black" cx="154.36" cy="-88.36" rx="0.36" ry="0.36"/>
</g>
<!-- note -->
<g id="node9" class="node">
<title>note</title>
<polygon fill="#fff9c4" stroke="black" points="235.39,-50.75 30.39,-50.75 30.39,0 241.39,0 241.39,-44.75 235.39,-50.75"/>
<polyline fill="none" stroke="black" points="235.39,-50.75 235.39,-44.75"/>
<polyline fill="none" stroke="black" points="241.39,-44.75 235.39,-44.75"/>
<text xml:space="preserve" text-anchor="middle" x="135.89" y="-36.3" font-family="Sans" font-size="11.00">问题:&quot;边 V0&#45;V1 被哪两个面共享?&quot;</text>
<text xml:space="preserve" text-anchor="middle" x="135.89" y="-22.05" font-family="Sans" font-size="11.00">朴素做法: 遍历所有面的所有边 → O(n)</text>
<text xml:space="preserve" text-anchor="middle" x="135.89" y="-7.8" font-family="Sans" font-size="11.00">半边做法: edge.Pair.Face → O(1)</text>
</g>
<!-- note&#45;&gt;V0 -->
<g id="edge7" class="edge">
<title>note&#45;&gt;V0</title>
<path fill="none" stroke="black" stroke-dasharray="1,5" d="M120.5,-51.15C116.07,-58.56 111.36,-66.46 107.31,-73.23"/>
</g>
</g>
</svg>
