<?xml version="1.0" encoding="UTF-8" standalone="no"?>
<!DOCTYPE svg PUBLIC "-//W3C//DTD SVG 1.1//EN"
 "http://www.w3.org/Graphics/SVG/1.1/DTD/svg11.dtd">
<!-- Generated by graphviz version 15.0.0 (20260523.1842)
 -->
<!-- Title: MemoryStructure Pages: 1 -->
<svg width="665pt" height="279pt"
 viewBox="0.00 0.00 665.00 279.00" xmlns="http://www.w3.org/2000/svg" xmlns:xlink="http://www.w3.org/1999/xlink">
<g id="graph0" class="graph" transform="scale(1 1) rotate(0) translate(4 275)">
<title>MemoryStructure</title>
<polygon fill="white" stroke="none" points="-4,4 -4,-275 660.5,-275 660.5,4 -4,4"/>
<g id="clust1" class="cluster">
<title>cluster_stack</title>
<polygon fill="none" stroke="#666666" stroke-dasharray="5,2" points="8,-8 8,-227 82,-227 82,-8 8,-8"/>
<text xml:space="preserve" text-anchor="middle" x="45" y="-209.7" font-family="Microsoft YaHei" font-size="14.00">栈</text>
</g>
<g id="clust2" class="cluster">
<title>cluster_heap</title>
<polygon fill="#f2f2f2" stroke="#f2f2f2" points="138,-14 138,-263 648.5,-263 648.5,-14 138,-14"/>
<text xml:space="preserve" text-anchor="middle" x="393.25" y="-245.7" font-family="Microsoft YaHei" font-size="14.00">堆</text>
</g>
<!-- stack_table -->
<g id="node1" class="node">
<title>stack_table</title>
<polygon fill="#e5e5e5" stroke="none" points="24,-155.75 24,-188.25 66,-188.25 66,-155.75 24,-155.75"/>
<text xml:space="preserve" text-anchor="start" x="40.5" y="-167.5" font-family="Microsoft YaHei, Arial" font-size="12.00" fill="#7f7f7f">...</text>
<polygon fill="none" stroke="black" points="24,-121.25 24,-155.75 66,-155.75 66,-121.25 24,-121.25"/>
<text xml:space="preserve" text-anchor="start" x="38.25" y="-134" font-family="Microsoft YaHei, Arial" font-size="12.00">oc</text>
<polygon fill="none" stroke="black" points="24,-86.75 24,-121.25 66,-121.25 66,-86.75 24,-86.75"/>
<text xml:space="preserve" text-anchor="start" x="33" y="-99.5" font-family="Microsoft YaHei, Arial" font-size="12.00">mc2</text>
<polygon fill="none" stroke="black" points="24,-52.25 24,-86.75 66,-86.75 66,-52.25 24,-52.25"/>
<text xml:space="preserve" text-anchor="start" x="33" y="-65" font-family="Microsoft YaHei, Arial" font-size="12.00">mc1</text>
<polygon fill="#e5e5e5" stroke="none" points="24,-19.75 24,-52.25 66,-52.25 66,-19.75 24,-19.75"/>
<text xml:space="preserve" text-anchor="start" x="40.5" y="-31.5" font-family="Microsoft YaHei, Arial" font-size="12.00" fill="#7f7f7f">...</text>
</g>
<!-- obj_other -->
<g id="node2" class="node">
<title>obj_other</title>
<polygon fill="none" stroke="black" points="254,-205.6 146,-205.6 146,-162.4 254,-162.4 254,-205.6"/>
<text xml:space="preserve" text-anchor="middle" x="200" y="-180.85" font-family="Microsoft YaHei, Arial" font-size="12.00">OtherClass</text>
</g>
<!-- stack_table&#45;&gt;obj_other -->
<g id="edge4" class="edge">
<title>stack_table:e&#45;&gt;obj_other:w</title>
<path fill="none" stroke="black" d="M67,-138.5C103.68,-138.5 104.94,-176.52 135.54,-183.05"/>
<polygon fill="black" stroke="black" points="135.25,-185.84 143.49,-183.85 135.81,-180.26 135.25,-185.84"/>
</g>
<!-- obj_mc2 -->
<g id="node3" class="node">
<title>obj_mc2</title>
<polygon fill="none" stroke="black" points="254,-125.6 146,-125.6 146,-82.4 254,-82.4 254,-125.6"/>
<text xml:space="preserve" text-anchor="middle" x="200" y="-100.85" font-family="Microsoft YaHei, Arial" font-size="12.00">MyClass</text>
</g>
<!-- stack_table&#45;&gt;obj_mc2 -->
<g id="edge5" class="edge">
<title>stack_table:e&#45;&gt;obj_mc2:w</title>
<path fill="none" stroke="black" d="M67,-104C98.28,-104 108.39,-104 135.54,-104"/>
<polygon fill="black" stroke="black" points="135.49,-106.8 143.49,-104 135.49,-101.2 135.49,-106.8"/>
</g>
<!-- obj_mc1 -->
<g id="node4" class="node">
<title>obj_mc1</title>
<polygon fill="none" stroke="black" points="444.38,-65.6 336.38,-65.6 336.38,-22.4 444.38,-22.4 444.38,-65.6"/>
<text xml:space="preserve" text-anchor="middle" x="390.38" y="-40.85" font-family="Microsoft YaHei, Arial" font-size="12.00">MyClass</text>
</g>
<!-- stack_table&#45;&gt;obj_mc1 -->
<g id="edge6" class="edge">
<title>stack_table:e&#45;&gt;obj_mc1:w</title>
<path fill="none" stroke="black" d="M67,-69.5C94.73,-69.5 275.46,-47.64 325.9,-44.4"/>
<polygon fill="black" stroke="black" points="325.99,-47.2 333.86,-44.06 325.75,-41.6 325.99,-47.2"/>
</g>
<!-- type_other -->
<g id="node5" class="node">
<title>type_other</title>
<polygon fill="#cccccc" stroke="none" points="334,-197.25 334,-223.75 446.75,-223.75 446.75,-197.25 334,-197.25"/>
<polygon fill="none" stroke="black" points="334,-197.25 334,-223.75 446.75,-223.75 446.75,-197.25 334,-197.25"/>
<text xml:space="preserve" text-anchor="start" x="375.75" y="-208.35" font-family="Microsoft YaHei, Arial" font-weight="bold" font-size="12.00">Type</text>
<polygon fill="none" stroke="black" points="334,-170.75 334,-197.25 446.75,-197.25 446.75,-170.75 334,-170.75"/>
<text xml:space="preserve" text-anchor="start" x="339" y="-179.5" font-family="Microsoft YaHei, Arial" font-size="12.00">Name: OtherClass</text>
<polygon fill="none" stroke="black" points="334,-144.25 334,-170.75 446.75,-170.75 446.75,-144.25 334,-144.25"/>
<text xml:space="preserve" text-anchor="start" x="385.88" y="-153" font-family="Microsoft YaHei, Arial" font-size="12.00">...</text>
</g>
<!-- obj_other&#45;&gt;type_other -->
<!-- obj_other&#45;&gt;type_other -->
<g id="edge7" class="edge">
<title>obj_other&#45;&gt;type_other</title>
<path fill="none" stroke="#666666" stroke-dasharray="5,2" d="M254.48,-196.31C273.81,-197.51 295.99,-197.8 316.69,-197.18"/>
<polygon fill="#666666" stroke="#666666" points="316.69,-199.98 324.58,-196.89 316.48,-194.39 316.69,-199.98"/>
</g>
<!-- obj_mc2&#45;&gt;obj_mc1 -->
<!-- type_myclass -->
<g id="node6" class="node">
<title>type_myclass</title>
<polygon fill="#cccccc" stroke="none" points="534.75,-79.25 534.75,-105.75 632.5,-105.75 632.5,-79.25 534.75,-79.25"/>
<polygon fill="none" stroke="black" points="534.75,-79.25 534.75,-105.75 632.5,-105.75 632.5,-79.25 534.75,-79.25"/>
<text xml:space="preserve" text-anchor="start" x="569" y="-90.35" font-family="Microsoft YaHei, Arial" font-weight="bold" font-size="12.00">Type</text>
<polygon fill="none" stroke="black" points="534.75,-52.75 534.75,-79.25 632.5,-79.25 632.5,-52.75 534.75,-52.75"/>
<text xml:space="preserve" text-anchor="start" x="539.75" y="-61.5" font-family="Microsoft YaHei, Arial" font-size="12.00">Name: MyClass</text>
<polygon fill="none" stroke="black" points="534.75,-26.25 534.75,-52.75 632.5,-52.75 632.5,-26.25 534.75,-26.25"/>
<text xml:space="preserve" text-anchor="start" x="579.12" y="-35" font-family="Microsoft YaHei, Arial" font-size="12.00">...</text>
</g>
<!-- obj_mc2&#45;&gt;type_myclass -->
<g id="edge9" class="edge">
<title>obj_mc2&#45;&gt;type_myclass</title>
<path fill="none" stroke="#666666" stroke-dasharray="5,2" d="M254.06,-100.77C305.46,-97.41 385.56,-91.59 454.75,-84 475.24,-81.75 497.51,-78.8 517.63,-75.93"/>
<polygon fill="#666666" stroke="#666666" points="518,-78.71 525.51,-74.8 517.2,-73.17 518,-78.71"/>
</g>
<!-- obj_mc1&#45;&gt;type_myclass -->
<!-- obj_mc1&#45;&gt;type_myclass -->
<g id="edge8" class="edge">
<title>obj_mc1&#45;&gt;type_myclass</title>
<path fill="none" stroke="#666666" stroke-dasharray="5,2" d="M444.65,-62.37C467.29,-66.41 493.89,-69.68 517.67,-71.39"/>
<polygon fill="#666666" stroke="#666666" points="517.3,-74.17 525.46,-71.89 517.66,-68.58 517.3,-74.17"/>
</g>
</g>
</svg>
